<mxfile host="Electron" agent="Mozilla/5.0 (Windows NT 10.0; Win64; x64) AppleWebKit/537.36 (KHTML, like Gecko) draw.io/24.7.8 Chrome/128.0.6613.36 Electron/32.0.1 Safari/537.36" version="24.7.8">
  <diagram name="Страница — 1" id="CqigJINaA66J55AUrKI4">
    <mxGraphModel dx="1098" dy="820" grid="1" gridSize="10" guides="1" tooltips="1" connect="1" arrows="1" fold="1" page="1" pageScale="1" pageWidth="827" pageHeight="1169" math="0" shadow="0">
      <root>
        <mxCell id="0" />
        <mxCell id="1" parent="0" />
        <mxCell id="fYBA2MArJD6ZDlYFdxGl-1" value="Система сервиса доставки" style="rounded=1;whiteSpace=wrap;html=1;" vertex="1" parent="1">
          <mxGeometry x="80" y="30" width="120" height="60" as="geometry" />
        </mxCell>
        <mxCell id="fYBA2MArJD6ZDlYFdxGl-2" value="Система сервиса доставки" style="rounded=1;whiteSpace=wrap;html=1;" vertex="1" parent="1">
          <mxGeometry x="80" y="390" width="120" height="60" as="geometry" />
        </mxCell>
        <mxCell id="fYBA2MArJD6ZDlYFdxGl-3" value="" style="endArrow=none;dashed=1;html=1;dashPattern=1 3;strokeWidth=2;rounded=0;exitX=0.5;exitY=0;exitDx=0;exitDy=0;entryX=0.5;entryY=1;entryDx=0;entryDy=0;" edge="1" parent="1" source="fYBA2MArJD6ZDlYFdxGl-4" target="fYBA2MArJD6ZDlYFdxGl-1">
          <mxGeometry width="50" height="50" relative="1" as="geometry">
            <mxPoint x="390" y="450" as="sourcePoint" />
            <mxPoint x="440" y="400" as="targetPoint" />
          </mxGeometry>
        </mxCell>
        <mxCell id="fYBA2MArJD6ZDlYFdxGl-5" value="" style="endArrow=none;dashed=1;html=1;dashPattern=1 3;strokeWidth=2;rounded=0;exitX=0.5;exitY=0;exitDx=0;exitDy=0;entryX=0.5;entryY=1;entryDx=0;entryDy=0;" edge="1" parent="1" source="fYBA2MArJD6ZDlYFdxGl-2" target="fYBA2MArJD6ZDlYFdxGl-4">
          <mxGeometry width="50" height="50" relative="1" as="geometry">
            <mxPoint x="140" y="390" as="sourcePoint" />
            <mxPoint x="140" y="100" as="targetPoint" />
          </mxGeometry>
        </mxCell>
        <mxCell id="fYBA2MArJD6ZDlYFdxGl-4" value="" style="html=1;points=[[0,0,0,0,5],[0,1,0,0,-5],[1,0,0,0,5],[1,1,0,0,-5]];perimeter=orthogonalPerimeter;outlineConnect=0;targetShapes=umlLifeline;portConstraint=eastwest;newEdgeStyle={&quot;curved&quot;:0,&quot;rounded&quot;:0};" vertex="1" parent="1">
          <mxGeometry x="135" y="100" width="10" height="280" as="geometry" />
        </mxCell>
        <mxCell id="fYBA2MArJD6ZDlYFdxGl-6" value="Система магазина" style="rounded=1;whiteSpace=wrap;html=1;" vertex="1" parent="1">
          <mxGeometry x="440" y="30" width="120" height="60" as="geometry" />
        </mxCell>
        <mxCell id="fYBA2MArJD6ZDlYFdxGl-7" value="Система магазина" style="rounded=1;whiteSpace=wrap;html=1;" vertex="1" parent="1">
          <mxGeometry x="440" y="390" width="120" height="60" as="geometry" />
        </mxCell>
        <mxCell id="fYBA2MArJD6ZDlYFdxGl-8" value="" style="endArrow=none;dashed=1;html=1;dashPattern=1 3;strokeWidth=2;rounded=0;exitX=0.5;exitY=0;exitDx=0;exitDy=0;entryX=0.5;entryY=1;entryDx=0;entryDy=0;" edge="1" parent="1" source="fYBA2MArJD6ZDlYFdxGl-9" target="fYBA2MArJD6ZDlYFdxGl-6">
          <mxGeometry width="50" height="50" relative="1" as="geometry">
            <mxPoint x="510" y="420" as="sourcePoint" />
            <mxPoint x="560" y="370" as="targetPoint" />
          </mxGeometry>
        </mxCell>
        <mxCell id="fYBA2MArJD6ZDlYFdxGl-10" value="" style="endArrow=none;dashed=1;html=1;dashPattern=1 3;strokeWidth=2;rounded=0;exitX=0.5;exitY=0;exitDx=0;exitDy=0;entryX=0.5;entryY=1;entryDx=0;entryDy=0;" edge="1" parent="1" source="fYBA2MArJD6ZDlYFdxGl-7" target="fYBA2MArJD6ZDlYFdxGl-9">
          <mxGeometry width="50" height="50" relative="1" as="geometry">
            <mxPoint x="500" y="390" as="sourcePoint" />
            <mxPoint x="500" y="100" as="targetPoint" />
          </mxGeometry>
        </mxCell>
        <mxCell id="fYBA2MArJD6ZDlYFdxGl-9" value="" style="html=1;points=[[0,0,0,0,5],[0,1,0,0,-5],[1,0,0,0,5],[1,1,0,0,-5]];perimeter=orthogonalPerimeter;outlineConnect=0;targetShapes=umlLifeline;portConstraint=eastwest;newEdgeStyle={&quot;curved&quot;:0,&quot;rounded&quot;:0};" vertex="1" parent="1">
          <mxGeometry x="495" y="100" width="10" height="280" as="geometry" />
        </mxCell>
        <mxCell id="fYBA2MArJD6ZDlYFdxGl-11" value="" style="endArrow=classic;html=1;rounded=0;" edge="1" parent="1" target="fYBA2MArJD6ZDlYFdxGl-9">
          <mxGeometry width="50" height="50" relative="1" as="geometry">
            <mxPoint x="150" y="120" as="sourcePoint" />
            <mxPoint x="560" y="370" as="targetPoint" />
          </mxGeometry>
        </mxCell>
        <mxCell id="fYBA2MArJD6ZDlYFdxGl-12" value="Запрос информации о сотрудничестве с доаставкой" style="text;html=1;align=center;verticalAlign=middle;resizable=0;points=[];autosize=1;strokeColor=none;fillColor=none;" vertex="1" parent="1">
          <mxGeometry x="160" y="90" width="320" height="30" as="geometry" />
        </mxCell>
        <mxCell id="fYBA2MArJD6ZDlYFdxGl-13" value="" style="endArrow=classic;html=1;rounded=0;" edge="1" parent="1" target="fYBA2MArJD6ZDlYFdxGl-4">
          <mxGeometry width="50" height="50" relative="1" as="geometry">
            <mxPoint x="490" y="160" as="sourcePoint" />
            <mxPoint x="370" y="280" as="targetPoint" />
          </mxGeometry>
        </mxCell>
        <mxCell id="fYBA2MArJD6ZDlYFdxGl-14" value="Ответ(да, нет)" style="text;html=1;align=center;verticalAlign=middle;resizable=0;points=[];autosize=1;strokeColor=none;fillColor=none;" vertex="1" parent="1">
          <mxGeometry x="260" y="128" width="100" height="30" as="geometry" />
        </mxCell>
        <mxCell id="fYBA2MArJD6ZDlYFdxGl-16" value="" style="endArrow=classic;html=1;rounded=0;" edge="1" parent="1">
          <mxGeometry width="50" height="50" relative="1" as="geometry">
            <mxPoint x="150" y="200" as="sourcePoint" />
            <mxPoint x="490" y="200" as="targetPoint" />
          </mxGeometry>
        </mxCell>
        <mxCell id="fYBA2MArJD6ZDlYFdxGl-17" value="Запрос данных о наличии продуктов" style="text;html=1;align=center;verticalAlign=middle;resizable=0;points=[];autosize=1;strokeColor=none;fillColor=none;" vertex="1" parent="1">
          <mxGeometry x="210" y="170" width="230" height="30" as="geometry" />
        </mxCell>
        <mxCell id="fYBA2MArJD6ZDlYFdxGl-18" value="" style="endArrow=classic;html=1;rounded=0;" edge="1" parent="1" target="fYBA2MArJD6ZDlYFdxGl-4">
          <mxGeometry width="50" height="50" relative="1" as="geometry">
            <mxPoint x="490" y="240" as="sourcePoint" />
            <mxPoint x="370" y="280" as="targetPoint" />
          </mxGeometry>
        </mxCell>
        <mxCell id="fYBA2MArJD6ZDlYFdxGl-19" value="Данные о продуктах и их сроке годности" style="text;html=1;align=center;verticalAlign=middle;resizable=0;points=[];autosize=1;strokeColor=none;fillColor=none;" vertex="1" parent="1">
          <mxGeometry x="200" y="210" width="250" height="30" as="geometry" />
        </mxCell>
        <mxCell id="fYBA2MArJD6ZDlYFdxGl-20" value="" style="endArrow=classic;html=1;rounded=0;" edge="1" parent="1" target="fYBA2MArJD6ZDlYFdxGl-4">
          <mxGeometry width="50" height="50" relative="1" as="geometry">
            <mxPoint x="150" y="280" as="sourcePoint" />
            <mxPoint x="150" y="320" as="targetPoint" />
            <Array as="points">
              <mxPoint x="280" y="280" />
              <mxPoint x="280" y="300" />
            </Array>
          </mxGeometry>
        </mxCell>
        <mxCell id="fYBA2MArJD6ZDlYFdxGl-21" value="Подсчёт стоимости&lt;div&gt;&amp;nbsp;выбранных продуктов&lt;/div&gt;" style="text;html=1;align=center;verticalAlign=middle;resizable=0;points=[];autosize=1;strokeColor=none;fillColor=none;" vertex="1" parent="1">
          <mxGeometry x="140" y="243" width="150" height="40" as="geometry" />
        </mxCell>
        <mxCell id="fYBA2MArJD6ZDlYFdxGl-22" value="" style="endArrow=classic;html=1;rounded=0;exitX=1.5;exitY=0.786;exitDx=0;exitDy=0;exitPerimeter=0;" edge="1" parent="1" source="fYBA2MArJD6ZDlYFdxGl-4" target="fYBA2MArJD6ZDlYFdxGl-4">
          <mxGeometry width="50" height="50" relative="1" as="geometry">
            <mxPoint x="320" y="330" as="sourcePoint" />
            <mxPoint x="190" y="340" as="targetPoint" />
            <Array as="points">
              <mxPoint x="280" y="320" />
              <mxPoint x="280" y="340" />
            </Array>
          </mxGeometry>
        </mxCell>
        <mxCell id="fYBA2MArJD6ZDlYFdxGl-23" value="Обработка платежа" style="text;html=1;align=center;verticalAlign=middle;resizable=0;points=[];autosize=1;strokeColor=none;fillColor=none;" vertex="1" parent="1">
          <mxGeometry x="145" y="300" width="130" height="30" as="geometry" />
        </mxCell>
      </root>
    </mxGraphModel>
  </diagram>
</mxfile>
